<svg width="12" height="12" viewBox="0 0 12 12" fill="none" xmlns="http://www.w3.org/2000/svg">
<path d="M1 2.49316H11" stroke="black" stroke-width="0.7" stroke-linecap="round" stroke-linejoin="round"/>
<path d="M3.37461 3.9875C4.19958 3.9875 4.86836 3.31873 4.86836 2.49375C4.86836 1.66877 4.19958 1 3.37461 1C2.54963 1 1.88086 1.66877 1.88086 2.49375C1.88086 3.31873 2.54963 3.9875 3.37461 3.9875Z" fill="white" stroke="black" stroke-width="0.7" stroke-linecap="round" stroke-linejoin="round"/>
<path d="M1 5.99414H11" stroke="black" stroke-width="0.7" stroke-linecap="round" stroke-linejoin="round"/>
<path d="M9.06894 7.4875C9.89392 7.4875 10.5627 6.81873 10.5627 5.99375C10.5627 5.16877 9.89392 4.5 9.06894 4.5C8.24397 4.5 7.5752 5.16877 7.5752 5.99375C7.5752 6.81873 8.24397 7.4875 9.06894 7.4875Z" fill="white" stroke="black" stroke-width="0.7" stroke-linecap="round" stroke-linejoin="round"/>
<path d="M1 9.50684H11" stroke="black" stroke-width="0.7" stroke-linecap="round" stroke-linejoin="round"/>
<path d="M4.86875 11.0002C5.69373 11.0002 6.3625 10.3314 6.3625 9.50645C6.3625 8.68147 5.69373 8.0127 4.86875 8.0127C4.04377 8.0127 3.375 8.68147 3.375 9.50645C3.375 10.3314 4.04377 11.0002 4.86875 11.0002Z" fill="white" stroke="black" stroke-width="0.7" stroke-linecap="round" stroke-linejoin="round"/>
</svg>
