<svg width="60" height="60" viewBox="0 0 60 60" fill="none" xmlns="http://www.w3.org/2000/svg">
<g clip-path="url(#clip0_12_917)">
<path d="M0.345737 29.9997C0.345737 13.6223 13.6223 0.345703 29.9998 0.345703C46.3772 0.345703 59.6538 13.6223 59.6538 29.9997C59.6538 46.3772 46.3772 59.6538 29.9998 59.6538C13.6223 59.6538 0.345737 46.3772 0.345737 29.9997Z" fill="#436005" stroke="black" stroke-width="0.7" stroke-linecap="round" stroke-linejoin="round"/>
<path d="M28.369 49.9572H29.9704C30.6336 49.9572 31.2697 49.6935 31.7387 49.2246C32.2077 48.7556 32.4712 48.1194 32.4712 47.4561V43.2257H25.5519V47.1796C25.5519 47.9136 25.8435 48.6177 26.3626 49.1367C26.8816 49.6558 27.5855 49.9471 28.3196 49.9471L28.369 49.9572Z" fill="white" stroke="black" stroke-width="0.7" stroke-linecap="round" stroke-linejoin="round"/>
<path d="M18 48.1879C19.7107 47.0777 21.7591 46.6087 23.7825 46.8635H31.196L37.2948 48.02C41.0115 48.4845 43.1071 52.0924 43.1071 55.8485V56.6198C39.0323 58.6358 34.5462 59.681 30 59.674C24.8856 59.6789 19.8579 58.3537 15.4102 55.8288V52.9425C15.4115 51.997 15.6491 51.0666 16.1014 50.2363C16.5537 49.4059 17.2063 48.7019 18 48.1879Z" fill="#F2EDE7" stroke="black" stroke-width="0.7" stroke-linecap="round" stroke-linejoin="round"/>
<path d="M21.7167 46.7249C21.7167 46.7249 22.9029 53.3676 25.7793 55.1568C25.7793 55.1568 30.7216 54.1681 34.6755 47.5058C34.6755 47.5058 40.0528 47.2587 42.4943 51.519C43.2195 53.0073 43.6683 54.6148 43.8188 56.2635C39.5733 58.4973 34.8468 59.6613 30.0495 59.6541C24.6728 59.6625 19.3959 58.2032 14.7876 55.4333C14.7381 53.2587 15.3411 47.3575 21.7167 46.7249Z" fill="#1B1B3F" stroke="black" stroke-width="0.7" stroke-linecap="round" stroke-linejoin="round"/>
<path d="M28.0032 50.4613C25.2354 50.4613 22.9917 49.2 22.9917 47.6442C22.9917 46.0883 25.2354 44.827 28.0032 44.827C30.771 44.827 33.0148 46.0883 33.0148 47.6442C33.0148 49.2 30.771 50.4613 28.0032 50.4613Z" fill="#F2EDE7" stroke="black" stroke-width="0.7" stroke-linecap="round" stroke-linejoin="round"/>
<path d="M28.0031 49.1957C26.1524 49.1957 24.6522 48.4257 24.6522 47.4758C24.6522 46.5259 26.1524 45.7559 28.0031 45.7559C29.8538 45.7559 31.354 46.5259 31.354 47.4758C31.354 48.4257 29.8538 49.1957 28.0031 49.1957Z" fill="white" stroke="black" stroke-width="0.7" stroke-linecap="round" stroke-linejoin="round"/>
<path d="M25.2848 57.2221C21.3309 54.5533 20.5105 48.929 20.3424 46.962C20.7945 46.8497 21.2535 46.7671 21.7164 46.7148C21.7164 46.7148 22.9026 53.3673 25.779 55.1564C25.779 55.1564 30.7213 54.1677 34.6752 47.5054C35.678 47.4976 36.6767 47.6343 37.6406 47.9109C31.6802 56.5995 25.2848 57.2221 25.2848 57.2221Z" fill="#282828" stroke="black" stroke-width="0.7" stroke-linecap="round" stroke-linejoin="round"/>
<path d="M12.8699 29.8417C12.8699 29.8417 12.7018 40.6656 13.8584 47.0313C16.8236 46.5674 19.6783 45.5622 22.2801 44.0659C26.4514 41.6936 12.8699 29.8417 12.8699 29.8417Z" fill="#212020" stroke="black" stroke-width="0.7" stroke-linecap="round" stroke-linejoin="round"/>
<path d="M28.3592 47.1204H28.1516C19.7117 47.1204 12.8699 40.2785 12.8699 31.8387V27.8549C12.8699 19.415 19.7117 12.5732 28.1516 12.5732H28.3592C36.799 12.5732 43.6409 19.415 43.6409 27.8549V31.8387C43.6409 40.2785 36.799 47.1204 28.3592 47.1204Z" fill="white" stroke="black" stroke-width="0.7" stroke-linecap="round" stroke-linejoin="round"/>
<path d="M12.0099 26.9066C12.0099 26.9066 19.9176 28.9627 35.3871 28.4487C36.4849 34.9597 36.6314 41.5954 35.822 48.1485C35.822 48.1485 44.8468 47.7236 48.9687 44.1058C48.9687 44.1058 54.6425 13.6512 34.1416 11.0713C34.1911 11.0713 13.5618 7.11747 12.0099 26.9066Z" fill="#212020" stroke="black" stroke-width="0.7" stroke-miterlimit="10"/>
<path d="M17.8517 34.9619C17.4978 34.9207 17.1714 34.7511 16.9345 34.4851C16.6976 34.219 16.5667 33.8751 16.5667 33.5188V31.4724C16.5665 31.2652 16.6104 31.0605 16.6954 30.8715C16.7804 30.6825 16.9046 30.5137 17.0598 30.3763C17.2149 30.2389 17.3974 30.1361 17.5953 30.0746C17.7931 30.0131 18.0018 29.9944 18.2075 30.0196C18.5622 30.0631 18.8888 30.2346 19.1255 30.5023C19.3622 30.7699 19.4928 31.115 19.4926 31.4724V33.5188C19.4913 33.7252 19.4463 33.929 19.3607 34.1168C19.2751 34.3046 19.1508 34.4719 18.9958 34.6082C18.8408 34.7445 18.6587 34.8465 18.4616 34.9074C18.2644 34.9683 18.0565 34.987 17.8517 34.9619Z" fill="black"/>
<path d="M27.0047 35.8321C26.65 35.7886 26.3235 35.6171 26.0868 35.3494C25.8501 35.0817 25.7195 34.7366 25.7197 34.3793V32.3329C25.7182 32.1261 25.7608 31.9214 25.8446 31.7324C25.9285 31.5435 26.0518 31.3748 26.2061 31.2372C26.3605 31.0997 26.5425 30.9967 26.7399 30.9351C26.9373 30.8735 27.1455 30.8548 27.3507 30.8801C27.7054 30.9235 28.032 31.095 28.2687 31.3627C28.5054 31.6304 28.636 31.9755 28.6357 32.3329V34.3793C28.6357 34.5856 28.592 34.7891 28.5076 34.9773C28.4232 35.1655 28.2999 35.3338 28.1459 35.4711C27.9919 35.6083 27.8106 35.7115 27.614 35.7737C27.4173 35.8359 27.2097 35.8558 27.0047 35.8321Z" fill="black"/>
<path d="M35.1991 33.5084C35.4964 32.9992 35.9344 32.5866 36.4604 32.3201C36.9864 32.0536 37.5781 31.9445 38.1645 32.0059C39.8548 32.2827 40.9421 34.2202 40.6061 36.3256C40.27 38.4311 38.6291 39.9238 36.9289 39.6569C36.2798 39.5383 35.6964 39.1868 35.2881 38.6684" fill="white"/>
<path d="M35.1991 33.5084C35.4964 32.9992 35.9344 32.5866 36.4604 32.3201C36.9864 32.0536 37.5781 31.9445 38.1645 32.0059C39.8548 32.2827 40.9421 34.2202 40.6061 36.3256C40.27 38.4311 38.6291 39.9238 36.9289 39.6569C36.2798 39.5383 35.6964 39.1868 35.2881 38.6684" stroke="black" stroke-width="0.7" stroke-linecap="round" stroke-linejoin="round"/>
<path d="M15.3261 37.4034C13.1286 37.04 11.5587 35.4664 11.8197 33.8883C12.0806 32.3102 14.0736 31.3253 16.2711 31.6887C18.4686 32.0521 20.0384 33.6262 19.7774 35.2043C19.5165 36.7824 17.5236 37.7668 15.3261 37.4034Z" stroke="black" stroke-width="0.7" stroke-linecap="round" stroke-linejoin="round"/>
<path d="M25.8923 38.1193C23.6948 37.7559 22.1249 36.1819 22.3859 34.6038C22.6469 33.0257 24.6398 32.0413 26.8373 32.4047C29.0348 32.7681 30.6047 34.3417 30.3437 35.9198C30.0827 37.4979 28.0898 38.4827 25.8923 38.1193Z" stroke="black" stroke-width="0.7" stroke-linecap="round" stroke-linejoin="round"/>
<path d="M22.5669 34.8827C22.1931 34.6307 21.7525 34.4961 21.3016 34.4961C20.8508 34.4961 20.4103 34.6307 20.0364 34.8827" stroke="black" stroke-width="0.7" stroke-linecap="round" stroke-linejoin="round"/>
<path d="M36.1483 32.6096L32.4811 35.6046L30.9984 35.5651" stroke="black" stroke-width="0.7" stroke-linecap="round" stroke-linejoin="round"/>
<path d="M11.8911 34.3001L10.4183 34.1716L12.7412 31.6807" stroke="black" stroke-width="0.7" stroke-linecap="round" stroke-linejoin="round"/>
<path d="M33.0248 35.3478C33.0248 35.3478 31.888 46.2208 33.4102 49.7496C34.9325 53.2784 37.7496 48.1385 37.7496 48.1385" stroke="black" stroke-width="0.7" stroke-linecap="round" stroke-linejoin="round"/>
<path d="M10.7543 33.9141C10.7543 33.9141 9.70652 46.5761 13.7197 49.4921C17.7329 52.4081 21.6274 46.3689 21.6274 46.3689" stroke="black" stroke-width="0.7" stroke-linecap="round" stroke-linejoin="round"/>
<path d="M34.5469 52.9422C34.6715 52.1466 35.0136 51.4007 35.5354 50.7872C36.1567 50.1419 36.9106 49.6391 37.7451 49.3132C38.5795 48.9873 39.4747 48.8462 40.369 48.8996C41.016 49.0091 41.6348 49.2462 42.1892 49.5975C42.7435 49.9487 43.2224 50.4067 43.5978 50.945C43.9732 51.4833 44.2376 52.0912 44.3757 52.7328C44.5138 53.3743 44.5227 54.0366 44.4019 54.6817L44.1548 56.0659C40.8309 57.871 37.1889 59.0153 33.4299 59.4363L34.5469 52.9422Z" fill="white" stroke="black" stroke-width="0.7" stroke-linecap="round" stroke-linejoin="round"/>
<path d="M22.5568 42.9981C23.6906 42.5244 24.9568 42.4734 26.125 42.8543C27.2933 43.2353 28.286 44.023 28.9226 45.074L29.5651 46.1315C30.197 47.174 30.4354 48.4081 30.2373 49.6109L35.9407 59.0607C33.9881 59.4535 32.0015 59.6523 30.0099 59.6539C29.0214 59.6539 28.0824 59.6044 27.1335 59.5154L23.5848 53.6343C22.426 53.2532 21.4433 52.4669 20.8171 51.4199L20.1747 50.3624C19.7964 49.7339 19.5573 49.0317 19.4735 48.3029C19.3897 47.5742 19.4632 46.8357 19.689 46.1378C19.9148 45.4398 20.2876 44.7985 20.7823 44.2569C21.277 43.7153 21.8821 43.286 22.5568 42.9981Z" fill="white" stroke="black" stroke-width="0.7" stroke-linecap="round" stroke-linejoin="round"/>
<path d="M24.099 55.6008C25.6159 55.6331 27.1115 55.24 28.4165 54.4661C29.7214 53.6922 30.7837 52.5682 31.4829 51.2217L30.7119 49.7197C29.9239 51.0208 28.849 52.1244 27.5693 52.9467C26.2896 53.769 24.8389 54.2881 23.3281 54.4642L24.099 55.6008Z" fill="#2A7E99" stroke="black" stroke-width="0.7" stroke-linecap="round" stroke-linejoin="round"/>
<path d="M31.1861 50.6785C31.1861 50.6785 31.7595 50.3031 33.3213 51.8847C35.0734 53.9581 36.6163 56.1996 37.9275 58.5766C35.3524 59.2914 32.6922 59.6537 30.0197 59.6539C28.2129 59.6504 26.4099 59.485 24.6326 59.1597C23.7133 57.3705 23.1795 55.8384 23.7133 55.4331C26.7098 54.8351 29.3749 53.1394 31.1861 50.6785Z" fill="#62ACD6" stroke="black" stroke-width="0.7" stroke-linecap="round" stroke-linejoin="round"/>
<path d="M30 60C13.4315 60 0 46.5685 0 30C0 13.4315 13.4315 0 30 0C46.5685 0 60 13.4315 60 30C60 46.5685 46.5685 60 30 60Z" fill="white" stroke="black" stroke-width="0.7" stroke-miterlimit="10"/>
<path d="M31.8442 16.2977C31.8442 16.2977 41.1593 14.7977 45.5543 25.4927C48.2393 32.0327 46.3942 42.5102 46.2367 47.4527C46.1917 48.7202 46.8742 51.2926 47.5342 54.3376C42.3375 58.0821 36.0788 60.0651 29.6739 59.9962C23.269 59.9274 17.0543 57.8104 11.9392 53.9551C12.8167 46.7101 13.3792 42.7951 13.2367 37.4551C12.9967 28.3801 17.5342 13.2002 31.8442 16.2977Z" fill="#191919" stroke="black" stroke-width="0.7" stroke-linecap="round" stroke-linejoin="round"/>
<path d="M44.122 55.5898L44.332 56.3398C41.9605 57.6368 39.4216 58.6008 36.787 59.2048L36.232 57.1648L39.3596 50.8198C43.4096 50.9548 44.122 55.5898 44.122 55.5898Z" fill="#0F0F0F" stroke="black" stroke-width="0.7" stroke-linecap="round" stroke-linejoin="round"/>
<path d="M33.4422 47.4077C33.3526 47.6253 33.322 47.8626 33.3536 48.0958C33.3852 48.3289 33.4779 48.5495 33.6222 48.7353C34.1097 49.4853 34.6122 50.7528 33.9522 51.4878C33.2922 52.2228 32.4522 57.4878 32.4522 57.4878L26.6697 50.6178C26.6244 49.7752 26.7208 48.931 26.9548 48.1203C27.3073 47.3703 29.0248 46.3652 29.0248 46.3652L33.4422 47.4077Z" fill="white" stroke="black" stroke-width="0.7" stroke-linecap="round" stroke-linejoin="round"/>
<path d="M30.9078 18.6226H31.8678C38.8721 18.6226 44.5503 24.3007 44.5503 31.3051V35.4751C44.5503 42.4794 38.8721 48.1576 31.8678 48.1576H30.9078C23.9034 48.1576 18.2253 42.4794 18.2253 35.4751V31.3051C18.2253 24.3007 23.9034 18.6226 30.9078 18.6226Z" fill="white" stroke="black" stroke-width="0.7" stroke-linecap="round" stroke-linejoin="round"/>
<path d="M40.4771 37.7618C40.7807 37.7268 41.0608 37.5814 41.2641 37.3532C41.4674 37.125 41.5798 36.8299 41.5796 36.5243V34.7768C41.5787 34.6002 41.5406 34.4257 41.4675 34.2649C41.3945 34.104 41.2882 33.9605 41.1557 33.8436C41.0233 33.7268 40.8677 33.6392 40.699 33.5867C40.5304 33.5343 40.3524 33.5181 40.177 33.5393C39.8747 33.576 39.5964 33.7222 39.3946 33.9502C39.1928 34.1782 39.0816 34.4723 39.082 34.7768V36.5243C39.0818 36.7006 39.119 36.875 39.1912 37.0358C39.2634 37.1966 39.3689 37.3402 39.5008 37.4572C39.6327 37.5742 39.7879 37.6619 39.9562 37.7144C40.1245 37.7669 40.3021 37.783 40.4771 37.7618Z" fill="black"/>
<path d="M32.6931 38.4972C32.9954 38.4605 33.2737 38.3143 33.4755 38.0863C33.6773 37.8583 33.7885 37.5642 33.7881 37.2597V35.5122C33.7883 35.3359 33.7512 35.1616 33.679 35.0008C33.6068 34.84 33.5012 34.6963 33.3693 34.5793C33.2374 34.4623 33.0822 34.3746 32.9139 34.3221C32.7457 34.2696 32.5682 34.2535 32.3932 34.2747C32.0896 34.3097 31.8093 34.4552 31.606 34.6834C31.4027 34.9116 31.2905 35.2066 31.2907 35.5122V37.2597C31.2916 37.4363 31.3297 37.6108 31.4028 37.7716C31.4758 37.9325 31.582 38.076 31.7144 38.1929C31.8469 38.3097 32.0026 38.3973 32.1713 38.4498C32.3399 38.5022 32.5177 38.5184 32.6931 38.4972Z" fill="black"/>
<path d="M25.403 50.1607C25.7425 49.5908 26.0286 48.9908 26.2579 48.3682C26.4829 47.8882 27.3005 48.0682 27.3005 48.0682C27.3005 48.0682 26.633 48.5407 27.3005 49.4857C27.8683 50.2537 28.6514 50.8358 29.5505 51.1582C30.2555 51.4432 30.683 51.6607 30.743 52.0807C30.8475 52.7828 31.0493 53.467 31.3429 54.1133C31.5473 54.4696 31.7134 54.8468 31.838 55.2383C31.838 55.2383 32.3629 53.3557 32.4679 52.7332C32.4793 52.2209 32.5757 51.714 32.753 51.2332C32.978 50.8432 33.2179 51.0157 33.6379 50.1607C33.9454 49.5457 33.143 48.1133 33.143 48.1133C33.4139 48.1259 33.6774 48.2041 33.9113 48.3413C34.1452 48.4785 34.3424 48.6704 34.4855 48.9007C34.8348 49.445 35.1287 50.0229 35.363 50.6257L40.0355 52.2007L40.2305 58.2007C34.2455 60.3681 27.7261 60.5756 21.6154 58.7932V52.0432L25.2455 51.1282C24.938 50.7907 25.118 50.4907 25.403 50.1607Z" fill="white" stroke="black" stroke-width="0.7" stroke-linecap="round" stroke-linejoin="round"/>
<path d="M31.8442 55.2378C32.206 55.7739 32.4607 56.375 32.5942 57.0078C32.8942 58.2153 32.5942 57.9902 32.9092 59.8577" fill="white"/>
<path d="M31.8442 55.2378C32.206 55.7739 32.4607 56.375 32.5942 57.0078C32.8942 58.2153 32.5942 57.9902 32.9092 59.8577" stroke="black" stroke-width="0.7" stroke-linecap="round" stroke-linejoin="round"/>
<path d="M42.6821 57.1869C40.216 58.337 37.6043 59.1444 34.9195 59.5869C34.9195 59.2794 34.7846 57.3369 34.7921 57.0519C34.7996 56.7669 36.1121 56.8719 36.1421 56.5119C36.2846 54.7119 36.5771 53.2119 36.5621 52.4619C36.5621 51.4119 35.5121 50.0169 34.4921 48.9294C34.9632 48.8768 35.4393 48.96 35.8645 49.1694C36.4181 49.423 36.9251 49.7678 37.3645 50.1894C38.3238 50.3462 39.2711 50.5692 40.1995 50.8569C40.9178 51.1082 41.5877 51.4812 42.1796 51.9595C43.2082 52.9182 43.8798 54.1983 44.0845 55.5894" fill="#0F0F0F"/>
<path d="M42.6821 57.1869C40.216 58.337 37.6043 59.1444 34.9195 59.5869C34.9195 59.2794 34.7846 57.3369 34.7921 57.0519C34.7996 56.7669 36.1121 56.8719 36.1421 56.5119C36.2846 54.7119 36.5771 53.2119 36.5621 52.4619C36.5621 51.4119 35.5121 50.0169 34.4921 48.9294C34.9632 48.8768 35.4393 48.96 35.8645 49.1694C36.4181 49.423 36.9251 49.7678 37.3645 50.1894C38.3238 50.3462 39.2711 50.5692 40.1995 50.8569C40.9178 51.1082 41.5877 51.4812 42.1796 51.9595C43.2082 52.9182 43.8798 54.1983 44.0845 55.5894" stroke="black" stroke-width="0.7" stroke-linecap="round" stroke-linejoin="round"/>
<path d="M30.1582 52.4404C30.1582 52.4404 29.7756 52.4405 29.5206 52.9805C29.2656 53.5205 29.0032 54.2404 28.8607 54.5329C28.7182 54.8254 27.3606 53.3555 27.0081 52.9655C26.3466 52.1871 25.8583 51.2769 25.5756 50.2954" fill="white"/>
<path d="M30.1582 52.4404C30.1582 52.4404 29.7756 52.4405 29.5206 52.9805C29.2656 53.5205 29.0032 54.2404 28.8607 54.5329C28.7182 54.8254 27.3606 53.3555 27.0081 52.9655C26.3466 52.1871 25.8583 51.2769 25.5756 50.2954" stroke="black" stroke-width="0.7" stroke-linecap="round" stroke-linejoin="round"/>
<path d="M33.2852 52.2004C33.7264 52.3996 34.0864 52.7437 34.3052 53.1755C34.6352 53.8655 35.0552 54.4055 35.0552 53.9255C35.0552 53.4455 35.7302 51.9379 35.3327 50.6704" fill="white"/>
<path d="M33.2852 52.2004C33.7264 52.3996 34.0864 52.7437 34.3052 53.1755C34.6352 53.8655 35.0552 54.4055 35.0552 53.9255C35.0552 53.4455 35.7302 51.9379 35.3327 50.6704" stroke="black" stroke-width="0.7" stroke-linecap="round" stroke-linejoin="round"/>
<path d="M30 57.8256C30.1595 58.5373 30.2449 59.2637 30.2549 59.9931H30C25.828 59.9977 21.7014 59.1264 17.8874 57.4356C17.9 56.1229 18.0534 54.8155 18.345 53.5356C18.72 52.4556 20.5124 51.7956 21.8024 51.4806C23.0924 51.1656 23.5048 50.4381 24.2098 49.8981C24.4307 49.7094 24.6874 49.567 24.9644 49.4794C25.2414 49.3917 25.5332 49.3607 25.8224 49.3881C25.5609 49.8046 25.4002 50.2765 25.3533 50.7661C25.3065 51.2557 25.3746 51.7495 25.5524 52.2081C26.1824 53.7006 29.61 57.0456 30 57.8256Z" fill="#0F0F0F" stroke="black" stroke-width="0.7" stroke-linecap="round" stroke-linejoin="round"/>
<path d="M24.3677 57.8251L24.1577 59.4226C21.4651 58.8878 18.8583 57.9869 16.4101 56.7451C16.6426 55.5751 17.6851 51.9001 21.8026 51.4951" fill="#0F0F0F"/>
<path d="M24.3677 57.8251L24.1577 59.4226C21.4651 58.8878 18.8583 57.9869 16.4101 56.7451C16.6426 55.5751 17.6851 51.9001 21.8026 51.4951" stroke="black" stroke-width="0.7" stroke-linecap="round" stroke-linejoin="round"/>
<path d="M23.5349 50.5054C23.7599 50.3029 23.9698 50.0929 24.2098 49.9054C24.4307 49.7166 24.6874 49.5742 24.9644 49.4866C25.2414 49.399 25.5332 49.368 25.8224 49.3954C25.5609 49.812 25.4002 50.2839 25.3533 50.7735C25.3065 51.2631 25.3746 51.7568 25.5524 52.2154C26.1824 53.7154 29.61 57.0454 30 57.8254C29.475 57.0754 29.0475 57.6829 29.0475 57.6829C29.0475 57.6829 26.7299 58.7704 26.1224 59.0854C25.1999 59.5729 24.3974 59.3629 24.0674 57.3304C23.6624 54.8929 22.6724 51.7054 23.5349 50.5054Z" fill="#1E1E1E" stroke="black" stroke-width="0.7" stroke-linecap="round" stroke-linejoin="round"/>
<path d="M25.6582 36.5175C25.4023 36.0844 25.0271 35.7339 24.5777 35.5079C24.1283 35.2819 23.6234 35.1898 23.1231 35.2425C21.6831 35.475 20.7456 37.125 21.0381 38.925C21.3306 40.725 22.7407 42 24.1807 41.7675C24.7344 41.671 25.2333 41.3748 25.5831 40.935" fill="white"/>
<path d="M25.6582 36.5175C25.4023 36.0844 25.0271 35.7339 24.5777 35.5079C24.1283 35.2819 23.6234 35.1898 23.1231 35.2425C21.6831 35.475 20.7456 37.125 21.0381 38.925C21.3306 40.725 22.7407 42 24.1807 41.7675C24.7344 41.671 25.2333 41.3748 25.5831 40.935" stroke="black" stroke-width="0.7" stroke-linecap="round" stroke-linejoin="round"/>
<path d="M44.2434 36.8705C44.2643 33.9221 43.8807 30.9847 43.1034 28.1405C43.5493 30.1962 43.7182 32.3024 43.6058 34.403C43.1533 33.9678 42.621 33.6241 42.0383 33.3905C42.0383 30.593 40.7333 26.453 40.7333 26.453C41.0429 28.6189 41.1058 30.8129 40.9208 32.993L40.0208 33.0754C40.4183 31.1329 39.5559 25.433 39.5559 25.433C39.7227 27.9838 39.6245 30.5449 39.2633 33.0754C37.4896 33.3811 35.6931 33.5341 33.8934 33.5329C35.3934 30.0979 34.0733 23.2655 34.0733 23.2655C34.0733 23.2655 33.9308 32.0329 32.9258 33.4354L31.2909 33.773C31.2909 33.773 31.8233 28.9054 31.7858 27.1729C31.7858 27.1729 30.7284 33.623 30.1884 34.028C29.3877 34.221 28.6141 34.5133 27.8858 34.898C27.8858 34.898 28.3734 30.6305 28.4934 29.2655C27.892 30.8156 27.4228 32.4138 27.0908 34.043C26.7619 35.8884 26.7619 37.7775 27.0908 39.6229C27.6083 42.0304 27.0458 43.7554 26.0033 44.7604C26.0033 44.7604 27.2858 41.5504 26.0033 39.6229C25.1138 38.4169 24.5928 36.9789 24.5033 35.4829C24.0929 35.2657 23.6252 35.1809 23.1647 35.24C22.7041 35.2991 22.2732 35.4992 21.9309 35.813C20.8359 36.9305 20.6259 38.9705 21.9309 40.898C23.2359 42.8255 19.7932 43.9579 19.5157 44.0329C18.3046 43.6368 17.1559 43.0712 16.1034 42.3529C16.0584 42.1504 14.6559 25.493 20.9559 21.113C27.2559 16.733 30.9534 16.658 34.8459 17.8205C37.1829 18.4367 39.3201 19.6486 41.0487 21.3378C42.7774 23.027 44.0383 25.1357 44.7083 27.458C45.3041 29.3298 45.5581 31.2936 45.4583 33.2554C45.5825 34.4466 45.4936 35.6504 45.1957 36.8104C44.7922 38.3817 44.633 40.0057 44.7233 41.6255C44.7611 42.2288 44.6873 42.8339 44.5058 43.4105C44.2214 42.8161 44.0317 42.1809 43.9433 41.528C43.9733 40.7405 44.2434 36.8705 44.2434 36.8705Z" fill="#191919"/>
<path d="M24.4726 38.9854C24.0995 40.9318 24.1921 42.9389 24.7426 44.8428C25.6426 48.1953 28.3801 53.8428 28.0351 58.2603C27.9877 58.8137 27.9126 59.3645 27.81 59.9104C26.5099 59.8201 25.2172 59.6446 23.9401 59.3853C24.1651 57.8853 24.0001 56.1378 22.6876 53.5053C19.6876 47.5053 19.4251 43.1179 19.4251 43.1179" fill="#191919"/>
<path d="M24.4726 38.9854C24.0995 40.9318 24.1921 42.9389 24.7426 44.8428C25.6426 48.1953 28.3801 53.8428 28.0351 58.2603C27.9877 58.8137 27.9126 59.3645 27.81 59.9104C26.5099 59.8201 25.2172 59.6446 23.9401 59.3853C24.1651 57.8853 24.0001 56.1378 22.6876 53.5053C19.6876 47.5053 19.4251 43.1179 19.4251 43.1179" stroke="black" stroke-width="0.7" stroke-linecap="round" stroke-linejoin="round"/>
<path d="M24.3596 35.3996C23.9711 35.2282 23.5411 35.1736 23.122 35.2421C21.682 35.4746 20.7445 37.1247 21.037 38.9247C21.3295 40.7247 22.7396 41.9996 24.1796 41.7671C24.7333 41.6707 25.2322 41.3745 25.582 40.9346" fill="white"/>
<path d="M24.3596 35.3996C23.9711 35.2282 23.5411 35.1736 23.122 35.2421C21.682 35.4746 20.7445 37.1247 21.037 38.9247C21.3295 40.7247 22.7396 41.9996 24.1796 41.7671C24.7333 41.6707 25.2322 41.3745 25.582 40.9346" stroke="black" stroke-width="0.7" stroke-linecap="round" stroke-linejoin="round"/>
<path d="M24.5317 35.4821C24.5191 37.0327 24.9738 38.5512 25.8367 39.8396C27.1192 41.7671 25.8367 44.9771 25.8367 44.9771C26.8792 43.9721 27.6067 42.0296 27.0892 39.6221C26.7602 37.7766 26.7602 35.8876 27.0892 34.0421C27.4211 32.4129 27.8904 30.8148 28.4918 29.2646C28.3718 30.6296 27.8842 34.8972 27.8842 34.8972C28.6125 34.5124 29.386 34.2201 30.1868 34.0271C30.7268 33.6221 31.7842 27.1721 31.7842 27.1721C31.8217 28.9046 31.2892 33.7722 31.2892 33.7722L32.9242 33.4346C33.9292 32.0321 34.0717 23.2646 34.0717 23.2646C34.0717 23.2646 35.4366 30.0146 33.9741 33.4271C33.9741 33.4271 37.0791 33.2696 39.2241 33.0746C39.5854 30.5441 39.6835 27.9829 39.5167 25.4322C39.5167 25.4322 40.4992 31.0346 40.1017 32.9846H40.8517C41.0368 30.8045 40.9739 28.6105 40.6642 26.4446C41.3553 28.7016 41.793 31.0284 41.9692 33.3821C42.5509 33.6179 43.0826 33.9614 43.5366 34.3946C43.5321 32.2972 43.3642 30.2034 43.0342 28.1321C43.0342 28.1321 44.8042 31.9646 43.9792 39.3821C43.8598 40.3232 43.8877 41.2771 44.0618 42.2097C44.2318 42.7772 44.325 43.3649 44.3392 43.9571C44.6423 43.0111 44.7544 42.0143 44.6691 41.0246C44.4591 39.7046 45.4717 35.4671 45.4717 35.4671" stroke="black" stroke-width="0.7" stroke-linecap="round" stroke-linejoin="round"/>
<path d="M35.8658 49.1993C36.4194 49.453 36.9264 49.7977 37.3658 50.2193C37.3658 50.2193 39.1958 53.3993 39.9908 54.5093C40.7858 55.6193 41.3783 56.4669 40.3883 56.5269C39.3983 56.5869 38.2809 56.3769 37.0734 56.5269C37.0734 56.5269 36.4208 56.6319 35.8658 56.7369C36.0008 56.6919 36.0984 56.6319 36.1059 56.5419C36.2484 54.7419 36.5409 53.2419 36.5259 52.4919C36.5259 51.4419 35.4759 50.0469 34.4559 48.9594C34.9393 48.8993 35.4295 48.9827 35.8658 49.1993Z" fill="#1E1E1E" stroke="black" stroke-width="0.7" stroke-linecap="round" stroke-linejoin="round"/>
<path d="M31.5373 57.2183C31.4503 57.2183 31.3798 57.1478 31.3798 57.0608C31.3798 56.9738 31.4503 56.9033 31.5373 56.9033C31.6243 56.9033 31.6948 56.9738 31.6948 57.0608C31.6948 57.1478 31.6243 57.2183 31.5373 57.2183Z" fill="white" stroke="black" stroke-width="0.7" stroke-linecap="round" stroke-linejoin="round"/>
<path d="M33.2922 54.1129C33.2052 54.1129 33.1347 54.0423 33.1347 53.9554C33.1347 53.8684 33.2052 53.7979 33.2922 53.7979C33.3792 53.7979 33.4497 53.8684 33.4497 53.9554C33.4497 54.0423 33.3792 54.1129 33.2922 54.1129Z" fill="white" stroke="black" stroke-width="0.7" stroke-linecap="round" stroke-linejoin="round"/>
<path d="M25.5075 16.485C25.5075 18.66 27.8251 19.965 30.6901 19.965C33.5551 19.965 35.8726 18.66 35.8726 16.485C35.8726 14.31 33.5551 11.8125 30.6901 11.8125C27.8251 11.8125 25.5075 14.3025 25.5075 16.485Z" fill="white" stroke="black" stroke-width="0.7" stroke-linecap="round" stroke-linejoin="round"/>
<path d="M33.1655 16.8149V17.0324" stroke="black" stroke-width="0.7" stroke-linecap="round" stroke-linejoin="round"/>
<path d="M30.8848 17.0332V17.2432" stroke="black" stroke-width="0.7" stroke-linecap="round" stroke-linejoin="round"/>
<path d="M32.3408 17.4082L31.7483 17.4907" stroke="black" stroke-width="0.7" stroke-linecap="round" stroke-linejoin="round"/>
<path d="M35.4971 7.40279C35.2444 7.40279 35.0396 7.19796 35.0396 6.94529C35.0396 6.69262 35.2444 6.48779 35.4971 6.48779C35.7498 6.48779 35.9546 6.69262 35.9546 6.94529C35.9546 7.19796 35.7498 7.40279 35.4971 7.40279Z" fill="white" stroke="black" stroke-width="0.7" stroke-linecap="round" stroke-linejoin="round"/>
<path d="M30.6895 7.40279C30.4368 7.40279 30.232 7.19796 30.232 6.94529C30.232 6.69262 30.4368 6.48779 30.6895 6.48779C30.9421 6.48779 31.147 6.69262 31.147 6.94529C31.147 7.19796 30.9421 7.40279 30.6895 7.40279Z" fill="white" stroke="black" stroke-width="0.7" stroke-linecap="round" stroke-linejoin="round"/>
<path d="M25.8833 7.40279C25.6306 7.40279 25.4258 7.19796 25.4258 6.94529C25.4258 6.69262 25.6306 6.48779 25.8833 6.48779C26.136 6.48779 26.3408 6.69262 26.3408 6.94529C26.3408 7.19796 26.136 7.40279 25.8833 7.40279Z" fill="white" stroke="black" stroke-width="0.7" stroke-linecap="round" stroke-linejoin="round"/>
<path d="M38.0552 38.2207C38.0552 38.2207 36.9076 39.3082 34.8001 38.2207" stroke="black" stroke-width="0.7" stroke-linecap="round" stroke-linejoin="round"/>
</g>
<rect x="0.5" y="-0.5" width="59" height="59" rx="29.5" transform="matrix(1 -8.74228e-08 -8.74228e-08 -1 -4.37114e-08 59)" stroke="black" stroke-linecap="round" stroke-linejoin="round"/>
<defs>
<clipPath id="clip0_12_917">
<rect width="60" height="60" fill="white" transform="matrix(-1 0 0 1 60 0)"/>
</clipPath>
</defs>
</svg>
