<svg width="60" height="60" viewBox="0 0 60 60" fill="none" xmlns="http://www.w3.org/2000/svg">
<g clip-path="url(#clip0_12_748)">
<path d="M59.6543 29.9997C59.6543 13.6223 46.3777 0.345703 30.0002 0.345703C13.6228 0.345703 0.346191 13.6223 0.346191 29.9997C0.346191 46.3772 13.6228 59.6538 30.0002 59.6538C46.3777 59.6538 59.6543 46.3772 59.6543 29.9997Z" fill="#436005" stroke="black" stroke-width="0.7" stroke-linecap="round" stroke-linejoin="round"/>
<path d="M31.631 49.9572H30.0296C29.3664 49.9572 28.7303 49.6936 28.2613 49.2246C27.7923 48.7556 27.5288 48.1194 27.5288 47.4561V43.2257H34.4481V47.1796C34.4481 47.9136 34.1565 48.6177 33.6374 49.1367C33.1184 49.6558 32.4145 49.9471 31.6804 49.9471L31.631 49.9572Z" fill="white" stroke="black" stroke-width="0.7" stroke-linecap="round" stroke-linejoin="round"/>
<path d="M42 48.1879C40.2893 47.0777 38.2409 46.6087 36.2175 46.8635H28.804L22.7052 48.02C18.9885 48.4846 16.8929 52.0924 16.8929 55.8486V56.6198C20.9677 58.6358 25.4538 59.681 30 59.674C35.1144 59.6789 40.1421 58.3537 44.5898 55.8288V52.9425C44.5885 51.997 44.3509 51.0666 43.8986 50.2363C43.4463 49.406 42.7937 48.7019 42 48.1879Z" fill="#F2EDE7" stroke="black" stroke-width="0.7" stroke-linecap="round" stroke-linejoin="round"/>
<path d="M38.2833 46.7248C38.2833 46.7248 37.0971 53.3676 34.2207 55.1567C34.2207 55.1567 29.2784 54.168 25.3245 47.5058C25.3245 47.5058 19.9472 47.2587 17.5057 51.519C16.7805 53.0073 16.3317 54.6148 16.1812 56.2635C20.4267 58.4973 25.1532 59.6613 29.9505 59.6541C35.3272 59.6625 40.6041 58.2031 45.2124 55.4333C45.2619 53.2587 44.6589 47.3575 38.2833 46.7248Z" fill="#1B1B3F" stroke="black" stroke-width="0.7" stroke-linecap="round" stroke-linejoin="round"/>
<path d="M31.9968 50.4613C34.7646 50.4613 37.0083 49.2 37.0083 47.6441C37.0083 46.0883 34.7646 44.827 31.9968 44.827C29.229 44.827 26.9852 46.0883 26.9852 47.6441C26.9852 49.2 29.229 50.4613 31.9968 50.4613Z" fill="#F2EDE7" stroke="black" stroke-width="0.7" stroke-linecap="round" stroke-linejoin="round"/>
<path d="M31.9969 49.1957C33.8476 49.1957 35.3478 48.4257 35.3478 47.4758C35.3478 46.5259 33.8476 45.7559 31.9969 45.7559C30.1462 45.7559 28.646 46.5259 28.646 47.4758C28.646 48.4257 30.1462 49.1957 31.9969 49.1957Z" fill="white" stroke="black" stroke-width="0.7" stroke-linecap="round" stroke-linejoin="round"/>
<path d="M34.7152 57.2221C38.6691 54.5533 39.4895 48.929 39.6576 46.962C39.2055 46.8497 38.7465 46.7671 38.2836 46.7148C38.2836 46.7148 37.0974 53.3673 34.221 55.1564C34.221 55.1564 29.2787 54.1677 25.3248 47.5054C24.322 47.4976 23.3233 47.6343 22.3594 47.9109C28.3198 56.5995 34.7152 57.2221 34.7152 57.2221Z" fill="#282828" stroke="black" stroke-width="0.7" stroke-linecap="round" stroke-linejoin="round"/>
<path d="M47.1301 29.8417C47.1301 29.8417 47.2982 40.6656 46.1416 47.0313C43.1764 46.5674 40.3217 45.5622 37.7199 44.0659C33.5486 41.6936 47.1301 29.8417 47.1301 29.8417Z" fill="#212020" stroke="black" stroke-width="0.7" stroke-linecap="round" stroke-linejoin="round"/>
<path d="M31.6408 47.1204H31.8484C40.2883 47.1204 47.1301 40.2785 47.1301 31.8387V27.8549C47.1301 19.415 40.2883 12.5732 31.8484 12.5732H31.6408C23.201 12.5732 16.3591 19.415 16.3591 27.8549V31.8387C16.3591 40.2785 23.201 47.1204 31.6408 47.1204Z" fill="white" stroke="black" stroke-width="0.7" stroke-linecap="round" stroke-linejoin="round"/>
<path d="M47.9901 26.9066C47.9901 26.9066 40.0824 28.9627 24.6129 28.4487C23.5151 34.9597 23.3686 41.5954 24.178 48.1485C24.178 48.1485 15.1532 47.7236 11.0313 44.1058C11.0313 44.1058 5.35754 13.6512 25.8584 11.0713C25.8089 11.0713 46.4382 7.11747 47.9901 26.9066Z" fill="#212020" stroke="black" stroke-width="0.7" stroke-miterlimit="10"/>
<path d="M42.1483 34.9619C42.5022 34.9207 42.8286 34.7511 43.0655 34.4851C43.3024 34.219 43.4333 33.8751 43.4333 33.5188V31.4724C43.4335 31.2652 43.3896 31.0605 43.3046 30.8715C43.2196 30.6825 43.0954 30.5137 42.9402 30.3763C42.7851 30.2389 42.6026 30.1361 42.4047 30.0746C42.2069 30.0131 41.9982 29.9944 41.7925 30.0196C41.4378 30.0631 41.1112 30.2346 40.8745 30.5023C40.6378 30.7699 40.5072 31.115 40.5074 31.4724V33.5188C40.5087 33.7252 40.5537 33.929 40.6393 34.1168C40.7249 34.3046 40.8492 34.4719 41.0042 34.6082C41.1592 34.7445 41.3413 34.8465 41.5384 34.9074C41.7356 34.9683 41.9435 34.987 42.1483 34.9619Z" fill="black"/>
<path d="M32.9953 35.8321C33.35 35.7886 33.6765 35.6171 33.9132 35.3494C34.1499 35.0817 34.2805 34.7366 34.2803 34.3793V32.3329C34.2818 32.1261 34.2392 31.9214 34.1554 31.7324C34.0715 31.5435 33.9482 31.3748 33.7939 31.2372C33.6395 31.0997 33.4575 30.9967 33.2601 30.9351C33.0627 30.8735 32.8545 30.8548 32.6493 30.8801C32.2946 30.9235 31.968 31.095 31.7313 31.3627C31.4946 31.6304 31.364 31.9755 31.3643 32.3329V34.3793C31.3643 34.5856 31.408 34.7891 31.4924 34.9773C31.5768 35.1655 31.7001 35.3338 31.8541 35.4711C32.0081 35.6083 32.1894 35.7115 32.386 35.7737C32.5827 35.8359 32.7903 35.8558 32.9953 35.8321Z" fill="black"/>
<path d="M24.8009 33.5084C24.5036 32.9992 24.0656 32.5866 23.5396 32.3201C23.0136 32.0536 22.4219 31.9445 21.8355 32.0059C20.1452 32.2827 19.0579 34.2202 19.3939 36.3256C19.73 38.4311 21.3709 39.9238 23.0711 39.6569C23.7202 39.5383 24.3036 39.1868 24.7119 38.6684" fill="white"/>
<path d="M24.8009 33.5084C24.5036 32.9992 24.0656 32.5866 23.5396 32.3201C23.0136 32.0536 22.4219 31.9445 21.8355 32.0059C20.1452 32.2827 19.0579 34.2202 19.3939 36.3256C19.73 38.4311 21.3709 39.9238 23.0711 39.6569C23.7202 39.5383 24.3036 39.1868 24.7119 38.6684" stroke="black" stroke-width="0.7" stroke-linecap="round" stroke-linejoin="round"/>
<path d="M44.6739 37.4034C46.8714 37.04 48.4413 35.4664 48.1803 33.8883C47.9194 32.3102 45.9264 31.3253 43.7289 31.6887C41.5314 32.0521 39.9616 33.6262 40.2226 35.2043C40.4835 36.7824 42.4764 37.7668 44.6739 37.4034Z" stroke="black" stroke-width="0.7" stroke-linecap="round" stroke-linejoin="round"/>
<path d="M34.1077 38.1193C36.3052 37.7559 37.8751 36.1819 37.6141 34.6038C37.3531 33.0257 35.3602 32.0413 33.1627 32.4047C30.9652 32.7681 29.3953 34.3417 29.6563 35.9198C29.9173 37.4979 31.9102 38.4827 34.1077 38.1193Z" stroke="black" stroke-width="0.7" stroke-linecap="round" stroke-linejoin="round"/>
<path d="M37.4331 34.8827C37.8069 34.6307 38.2475 34.4961 38.6984 34.4961C39.1492 34.4961 39.5897 34.6307 39.9636 34.8827" stroke="black" stroke-width="0.7" stroke-linecap="round" stroke-linejoin="round"/>
<path d="M23.8517 32.6096L27.5189 35.6046L29.0016 35.5651" stroke="black" stroke-width="0.7" stroke-linecap="round" stroke-linejoin="round"/>
<path d="M48.1089 34.3001L49.5817 34.1716L47.2588 31.6807" stroke="black" stroke-width="0.7" stroke-linecap="round" stroke-linejoin="round"/>
<path d="M26.9752 35.3478C26.9752 35.3478 28.112 46.2208 26.5898 49.7496C25.0675 53.2784 22.2504 48.1385 22.2504 48.1385" stroke="black" stroke-width="0.7" stroke-linecap="round" stroke-linejoin="round"/>
<path d="M49.2457 33.9141C49.2457 33.9141 50.2935 46.5761 46.2803 49.4921C42.2671 52.4081 38.3726 46.3689 38.3726 46.3689" stroke="black" stroke-width="0.7" stroke-linecap="round" stroke-linejoin="round"/>
<path d="M25.4531 52.9422C25.3285 52.1466 24.9864 51.4007 24.4646 50.7872C23.8433 50.1419 23.0894 49.6391 22.2549 49.3132C21.4205 48.9873 20.5253 48.8462 19.631 48.8996C18.984 49.0091 18.3652 49.2462 17.8108 49.5975C17.2565 49.9487 16.7776 50.4068 16.4022 50.945C16.0268 51.4833 15.7624 52.0912 15.6243 52.7328C15.4862 53.3744 15.4773 54.0367 15.5981 54.6817L15.8452 56.066C19.1691 57.8711 22.8111 59.0153 26.5701 59.4363L25.4531 52.9422Z" fill="white" stroke="black" stroke-width="0.7" stroke-linecap="round" stroke-linejoin="round"/>
<path d="M37.4432 42.9981C36.3094 42.5244 35.0432 42.4734 33.875 42.8543C32.7067 43.2353 31.714 44.023 31.0774 45.074L30.4349 46.1315C29.803 47.174 29.5646 48.4081 29.7627 49.6109L24.0593 59.0607C26.0119 59.4535 27.9985 59.6523 29.9901 59.6539C30.9786 59.6539 31.9176 59.6044 32.8665 59.5154L36.4152 53.6343C37.574 53.2532 38.5567 52.4669 39.1829 51.4199L39.8253 50.3624C40.2036 49.7339 40.4427 49.0317 40.5265 48.3029C40.6103 47.5742 40.5368 46.8357 40.311 46.1378C40.0852 45.4398 39.7124 44.7985 39.2177 44.2569C38.723 43.7153 38.1179 43.286 37.4432 42.9981Z" fill="white" stroke="black" stroke-width="0.7" stroke-linecap="round" stroke-linejoin="round"/>
<path d="M35.901 55.6008C34.3841 55.6331 32.8885 55.24 31.5835 54.4661C30.2786 53.6922 29.2163 52.5682 28.5171 51.2217L29.2881 49.7197C30.0761 51.0208 31.151 52.1244 32.4307 52.9467C33.7104 53.769 35.1611 54.2881 36.6719 54.4642L35.901 55.6008Z" fill="#2A7E99" stroke="black" stroke-width="0.7" stroke-linecap="round" stroke-linejoin="round"/>
<path d="M28.8139 50.6785C28.8139 50.6785 28.2405 50.3031 26.6787 51.8847C24.9266 53.9581 23.3837 56.1996 22.0725 58.5766C24.6476 59.2914 27.3078 59.6537 29.9803 59.6539C31.7871 59.6504 33.5901 59.485 35.3674 59.1597C36.2867 57.3705 36.8205 55.8384 36.2867 55.4331C33.2902 54.8351 30.6251 53.1394 28.8139 50.6785Z" fill="#62ACD6" stroke="black" stroke-width="0.7" stroke-linecap="round" stroke-linejoin="round"/>
<path d="M60 29.9847C60 13.4246 46.5685 0 30 0C13.4315 0 0 13.4246 0 29.9847C0 46.5448 13.4315 59.9695 30 59.9695C46.5685 59.9695 60 46.5448 60 29.9847Z" fill="#B99E89" stroke="black" stroke-width="0.7" stroke-linecap="round" stroke-linejoin="round"/>
<path d="M35.971 55.8715C34.4364 55.9041 32.9234 55.5066 31.6031 54.7241C30.2829 53.9416 29.2083 52.805 28.501 51.4435L29.281 49.9248C30.0782 51.2404 31.1656 52.3563 32.4602 53.1878C33.7548 54.0192 35.2225 54.5441 36.751 54.7221L35.971 55.8715Z" fill="#2A7E99" stroke="black" stroke-width="0.7" stroke-linecap="round" stroke-linejoin="round"/>
<path d="M40.6514 16.8314C41.113 16.3346 41.7388 16.0216 42.4134 15.95C43.0879 15.8783 43.7656 16.0532 44.3214 16.4419C46.3214 17.8712 44.7714 20.7796 44.7714 20.7796L40.6514 16.8314Z" fill="#592C05" stroke="black" stroke-width="0.7" stroke-linecap="round" stroke-linejoin="round"/>
<path d="M24.57 14.2038C8.96005 17.1523 5.85003 34.3835 5.89003 47.8566C8.67978 51.6231 12.314 54.6835 16.501 56.7925C20.6881 58.9014 25.3114 60 30 60.0003C34.1699 60.0013 38.2942 59.1336 42.1097 57.4523C45.9252 55.7709 49.3482 53.3128 52.16 50.2353C52.44 42.869 51.82 33.3042 50.8 29.776C48.38 21.3203 42.22 10.8355 24.57 14.2038Z" fill="#592C05" stroke="black" stroke-width="0.7" stroke-linecap="round" stroke-linejoin="round"/>
<path d="M16.12 20.0803C16.12 20.0803 13.6701 18.4414 11.9101 19.8607C11.635 20.1027 11.4117 20.3975 11.2536 20.7279C11.0954 21.0583 11.0057 21.4176 10.9899 21.7835C10.974 22.1494 11.0322 22.5148 11.1612 22.8577C11.2901 23.2005 11.487 23.5137 11.74 23.7786" fill="#592C05"/>
<path d="M16.12 20.0803C16.12 20.0803 13.6701 18.4414 11.9101 19.8607C11.635 20.1027 11.4117 20.3975 11.2536 20.7279C11.0954 21.0583 11.0057 21.4176 10.9899 21.7835C10.974 22.1494 11.0322 22.5148 11.1612 22.8577C11.2901 23.2005 11.487 23.5137 11.74 23.7786" stroke="black" stroke-width="0.7" stroke-linecap="round" stroke-linejoin="round"/>
<path d="M30.7496 21.9191C30.5095 21.9563 30.2637 21.9228 30.0419 21.8235C29.8201 21.7242 29.6318 21.5632 29.4996 21.3594L28.9196 20.2798C28.6696 19.8101 28.9696 19.3303 29.5596 19.2803C29.7999 19.2419 30.0461 19.2741 30.2681 19.3736C30.4902 19.473 30.6784 19.6354 30.8096 19.8401L31.3996 20.9196C31.6496 21.3494 31.3396 21.8292 30.7496 21.9191Z" fill="black"/>
<path d="M38.7494 20.8391C38.5058 20.883 38.2547 20.8573 38.0248 20.7654C37.7949 20.6735 37.5955 20.5191 37.4494 20.3194L36.7694 19.2598C36.4794 18.8001 36.7694 18.2603 37.3294 18.2003C37.573 18.1587 37.8233 18.1852 38.0528 18.2769C38.2822 18.3687 38.4818 18.5221 38.6294 18.7201L39.3094 19.7893C39.5994 20.1991 39.3394 20.7392 38.7494 20.8391Z" fill="black"/>
<path d="M31.2105 24.288C31.5505 25.5873 33.9305 26.2869 36.5405 25.7872C39.1505 25.2874 40.7705 24.2782 40.3405 23.0488C39.9105 21.8195 38.0405 20.9198 35.4905 21.1797C32.9405 21.4395 30.8705 22.9886 31.2105 24.288Z" fill="#FFD6A9" stroke="black" stroke-width="0.7" stroke-linecap="round" stroke-linejoin="round"/>
<path d="M36.5669 22.2357C37.4349 22.1467 38.1038 21.7357 38.061 21.3182C38.0181 20.9007 37.2797 20.6346 36.4116 20.7236C35.5436 20.8127 34.8746 21.2231 34.9175 21.6407C34.9603 22.0582 35.6988 22.3248 36.5669 22.2357Z" fill="#603A0E" stroke="black" stroke-width="0.7" stroke-linecap="round" stroke-linejoin="round"/>
<path d="M30.0012 23.4589C28.2185 23.1476 26.3845 23.3345 24.7012 23.9989" stroke="black" stroke-width="0.7" stroke-linecap="round" stroke-linejoin="round"/>
<path d="M29.0293 24.4192C28.1704 24.5845 27.3412 24.8774 26.5693 25.2888" stroke="black" stroke-width="0.7" stroke-linecap="round" stroke-linejoin="round"/>
<path d="M41.1904 22.3089C42.1484 21.8458 43.2079 21.6329 44.2704 21.6892" stroke="black" stroke-width="0.7" stroke-linecap="round" stroke-linejoin="round"/>
<path d="M42.1504 23.0683C42.7287 22.8796 43.3521 22.8796 43.9304 23.0683" stroke="black" stroke-width="0.7" stroke-linecap="round" stroke-linejoin="round"/>
<path d="M34.8702 28.9544C38.1402 28.1748 41.9402 27.955 44.6202 29.0544C50.1102 31.2433 50.2502 36.331 50.4702 38.8297C50.5748 40.4549 50.3076 42.0824 49.6891 43.589C49.0705 45.0957 48.1168 46.4417 46.9002 47.525C43.7299 50.0209 39.9557 51.6348 35.9602 52.2028C24.6902 53.9619 21.3402 48.2047 21.5502 41.2782C21.7602 34.3517 28.1302 30.5536 34.8702 28.9544Z" fill="#CD9A5D" stroke="black" stroke-width="0.7" stroke-linecap="round" stroke-linejoin="round"/>
<path d="M34.8722 34.4051C34.9543 34.1705 34.7168 33.874 34.3414 33.7428C33.9661 33.6115 33.595 33.6953 33.5129 33.9298C33.4308 34.1644 33.6688 34.461 34.0441 34.5923C34.4195 34.7235 34.7901 34.6396 34.8722 34.4051Z" fill="white"/>
<path d="M42.3174 32.459C42.6191 32.2 42.7323 31.8371 42.5704 31.6486C42.4084 31.4601 42.0327 31.5174 41.731 31.7764C41.4292 32.0354 41.3157 32.3979 41.4776 32.5864C41.6396 32.7749 42.0156 32.718 42.3174 32.459Z" fill="white"/>
<path d="M33.7694 52.463C33.2094 52.463 32.6694 52.5231 32.1594 52.5231H32.0594C24.6994 52.5231 21.9394 48.2754 21.6094 42.9981C25.5494 41.339 29.5294 42.0786 31.9494 41.5389C35.0594 40.8493 36.3894 38.2507 39.6094 37.3711C40.8547 37.0227 42.1805 37.0964 43.3794 37.581C46.3094 38.5805 47.6294 35.732 49.8994 35.1423C50.215 36.3497 50.4126 37.5848 50.4894 38.8303C50.5939 40.4555 50.3268 42.083 49.7083 43.5896C49.0897 45.0963 48.1359 46.4422 46.9194 47.5256C43.7474 50.0205 39.9744 51.6372 35.9794 52.2132C35.2894 52.3131 34.6294 52.393 33.9794 52.443L33.7694 52.463Z" fill="white" stroke="black" stroke-width="0.7" stroke-linecap="round" stroke-linejoin="round"/>
<path d="M38.3313 39.4798C38.4833 39.7832 38.7357 40.0248 39.0456 40.1634C39.3555 40.3019 39.7037 40.3286 40.0313 40.2395C40.3716 40.1662 40.6802 39.9877 40.9135 39.7293C41.1468 39.4709 41.293 39.1456 41.3313 38.7996C41.2513 38.3796 40.5613 38.4297 39.7413 38.6097C38.9213 38.7897 38.2613 39.0598 38.3313 39.4798Z" fill="#603A0E" stroke="black" stroke-width="0.7" stroke-linecap="round" stroke-linejoin="round"/>
<path d="M40.0312 40.2393C40.2594 41.0308 40.3441 41.8571 40.2812 42.6785C40.1528 42.9465 39.9629 43.1803 39.727 43.3612C39.4911 43.5421 39.2157 43.6649 38.9234 43.7194C38.6311 43.774 38.3301 43.7587 38.0447 43.675C37.7594 43.5914 37.4978 43.4414 37.2812 43.2377" stroke="black" stroke-width="0.7" stroke-linecap="round" stroke-linejoin="round"/>
<path d="M40.3203 41.8996C40.4129 42.2679 40.6453 42.5855 40.9683 42.7853C41.2913 42.9851 41.6794 43.0511 42.0503 42.9694C42.3101 42.9089 42.5513 42.7866 42.7534 42.6125C42.9554 42.4383 43.1122 42.2174 43.2103 41.9694" stroke="black" stroke-width="0.7" stroke-linecap="round" stroke-linejoin="round"/>
<path d="M34.6906 39.0106C34.912 38.9605 35.1074 38.8316 35.24 38.6475C35.3726 38.4634 35.4333 38.2368 35.4106 38.0111L35.2806 36.7119C35.2671 36.5803 35.2256 36.4529 35.159 36.3386C35.0923 36.2242 35.002 36.1258 34.8941 36.0492C34.7862 35.9725 34.6631 35.9198 34.5332 35.8945C34.4032 35.8692 34.2694 35.8717 34.1406 35.9023C33.9181 35.9504 33.7214 36.0793 33.5885 36.2639C33.4555 36.4485 33.3956 36.6757 33.4206 36.9018L33.5506 38.2009C33.5656 38.3319 33.6081 38.4583 33.6752 38.5718C33.7422 38.6853 33.8325 38.7834 33.94 38.8598C34.0475 38.9361 34.1699 38.989 34.2992 39.0149C34.4286 39.0409 34.5619 39.0395 34.6906 39.0106Z" fill="black"/>
<path d="M43.1504 36.7119C43.3747 36.6659 43.5738 36.538 43.7088 36.3532C43.8438 36.1683 43.905 35.9399 43.8804 35.7124L43.7504 34.4132C43.7367 34.2814 43.6952 34.1536 43.6287 34.0389C43.5621 33.9242 43.472 33.825 43.3644 33.7476C43.2567 33.6702 43.1338 33.6165 43.0039 33.5899C42.874 33.5634 42.7398 33.5644 42.6104 33.5934C42.389 33.6434 42.1936 33.7728 42.061 33.9569C41.9284 34.141 41.8677 34.3671 41.8904 34.5928L42.0204 35.8925C42.0328 36.0239 42.0731 36.1511 42.1386 36.2658C42.204 36.3805 42.2932 36.4796 42.4001 36.5572C42.507 36.6347 42.6292 36.6887 42.7586 36.7153C42.888 36.7419 43.0215 36.7409 43.1504 36.7119Z" fill="black"/>
</g>
<rect x="59.5" y="59.5" width="59" height="59" rx="29.5" transform="rotate(-180 59.5 59.5)" stroke="black" stroke-linecap="round" stroke-linejoin="round"/>
<defs>
<clipPath id="clip0_12_748">
<rect width="60" height="60" fill="white"/>
</clipPath>
</defs>
</svg>
